# 3ds Max Wavefront OBJ Exporter v0.97b - (c)2007 guruware
# File Created: 30.06.2014 13:10:06

mtllib baum.mtl

#
# object Cylinder001
#

v  20.3543 1.7052 -0.7057
v  17.8746 1.7052 -10.4527
v  17.3992 65.7922 -9.5691
v  20.4823 65.7922 -0.5666
v  12.3876 1.7052 -16.8211
v  11.2199 65.7922 -16.6899
v  3.0652 1.7052 -19.9197
v  2.9182 65.7922 -20.8163
v  -6.0531 1.7052 -19.6087
v  -6.4675 65.7922 -18.7894
v  -14.0090 1.7052 -13.1319
v  -14.4302 65.7922 -13.9710
v  -19.4272 1.7052 -4.6590
v  -18.5689 65.7922 -6.2262
v  -17.7002 1.7052 4.7968
v  -18.9506 65.7922 3.2296
v  -14.3610 1.7052 13.0693
v  -14.1150 65.7922 12.2302
v  -6.8444 1.7052 17.3356
v  -5.6201 65.7922 18.1548
v  2.1874 1.7052 19.3041
v  3.7565 65.7922 18.4075
v  11.3779 1.7052 15.6966
v  12.5320 65.7922 15.8278
v  18.5302 1.7052 7.9094
v  18.0618 65.7922 8.7930
# 26 vertices

vn 0.9997 0.0036 -0.0243
vn 0.8862 0.0132 -0.4632
vn 0.8691 0.0074 -0.4945
vn 0.9992 0.0010 -0.0400
vn 0.5638 0.0025 -0.8259
vn 0.6108 0.0125 -0.7917
vn 0.1351 -0.0013 -0.9908
vn 0.1164 -0.0034 -0.9932
vn -0.3431 0.0002 -0.9393
vn -0.3631 -0.0021 -0.9318
vn -0.7489 -0.0086 -0.6626
vn -0.7300 -0.0034 -0.6835
vn -0.9804 -0.0077 -0.1969
vn -0.9629 0.0005 -0.2699
vn -0.9584 -0.0037 0.2855
vn -0.9732 0.0023 0.2299
vn -0.7545 0.0043 0.6563
vn -0.7508 0.0044 0.6605
vn -0.3513 0.0071 0.9362
vn -0.3050 -0.0005 0.9523
vn 0.0710 0.0064 0.9975
vn 0.1233 -0.0013 0.9924
vn 0.5666 -0.0069 0.8240
vn 0.5664 -0.0055 0.8241
vn 0.8892 -0.0030 0.4576
vn 0.8935 -0.0055 0.4490
vn 0.0000 -1.0000 -0.0000
vn 0.0000 1.0000 -0.0000
# 28 vertex normals

vt 0.7500 0.0000 1.0000
vt 0.8269 0.0000 1.0000
vt 0.8269 1.0000 1.0000
vt 0.7500 1.0000 1.0000
vt 0.9038 0.0000 1.0000
vt 0.9038 1.0000 1.0000
vt 0.9808 0.0000 1.0000
vt 0.9808 1.0000 1.0000
vt 1.0577 0.0000 1.0000
vt 1.0577 1.0000 1.0000
vt 0.0577 0.0000 1.0000
vt 0.1346 0.0000 1.0000
vt 0.1346 1.0000 1.0000
vt 0.0577 1.0000 1.0000
vt 0.2115 0.0000 1.0000
vt 0.2115 1.0000 1.0000
vt 0.2885 0.0000 1.0000
vt 0.2885 1.0000 1.0000
vt 0.3654 0.0000 1.0000
vt 0.3654 1.0000 1.0000
vt 0.4423 0.0000 1.0000
vt 0.4423 1.0000 1.0000
vt 0.5192 0.0000 1.0000
vt 0.5192 1.0000 1.0000
vt 0.5962 0.0000 1.0000
vt 0.5962 1.0000 1.0000
vt 0.6731 0.0000 1.0000
vt 0.6731 1.0000 1.0000
vt 0.9115 0.7840 -0.2500
vt 0.9964 0.5603 -0.2500
vt 0.9675 0.3227 -0.2500
vt 0.6197 0.0145 -0.2500
vt 0.8316 0.1257 -0.2500
vt 0.3803 0.0145 -0.2500
vt 0.1684 0.1257 -0.2500
vt 0.0036 0.5603 -0.2500
vt 0.0325 0.3227 -0.2500
vt 0.2676 0.9427 -0.2500
vt 0.0885 0.7840 -0.2500
vt 0.5000 1.0000 -0.2500
vt 0.7324 0.9427 -0.2500
vt 0.2676 0.9427 0.2500
vt 0.0885 0.7840 0.2500
vt 0.0036 0.5603 0.2500
vt 0.1684 0.1257 0.2500
vt 0.0325 0.3227 0.2500
vt 0.3803 0.0145 0.2500
vt 0.6197 0.0145 0.2500
vt 0.9675 0.3227 0.2500
vt 0.8316 0.1257 0.2500
vt 0.9115 0.7840 0.2500
vt 0.9964 0.5603 0.2500
vt 0.7324 0.9427 0.2500
vt 0.5000 1.0000 0.2500
# 54 texture coords

g Cylinder001
usemtl Standard_1
s 1
f 1/1/1 2/2/2 3/3/3 4/4/4 
f 2/2/2 5/5/5 6/6/6 3/3/3 
f 5/5/5 7/7/7 8/8/8 6/6/6 
f 7/7/7 9/9/9 10/10/10 8/8/8 
f 9/11/9 11/12/11 12/13/12 10/14/10 
f 11/12/11 13/15/13 14/16/14 12/13/12 
f 13/15/13 15/17/15 16/18/16 14/16/14 
f 15/17/15 17/19/17 18/20/18 16/18/16 
f 17/19/17 19/21/19 20/22/20 18/20/18 
f 19/21/19 21/23/21 22/24/22 20/22/20 
f 21/23/21 23/25/23 24/26/24 22/24/22 
f 23/25/23 25/27/25 26/28/26 24/26/24 
f 25/27/25 1/1/1 4/4/4 26/28/26 
s 2
f 23/29/27 21/30/27 19/31/27 15/32/27 
f 19/31/27 17/33/27 15/32/27 
f 15/32/27 13/34/27 11/35/27 7/36/27 
f 11/35/27 9/37/27 7/36/27 
f 23/29/27 15/32/27 7/36/27 2/38/27 
f 7/36/27 5/39/27 2/38/27 
f 23/29/27 2/38/27 1/40/27 25/41/27 
f 3/42/28 6/43/28 8/44/28 12/45/28 
f 8/44/28 10/46/28 12/45/28 
f 12/45/28 14/47/28 16/48/28 20/49/28 
f 16/48/28 18/50/28 20/49/28 
f 3/42/28 12/45/28 20/49/28 24/51/28 
f 20/49/28 22/52/28 24/51/28 
f 3/42/28 24/51/28 26/53/28 4/54/28 
# 21 polygons - 6 triangles

#
# object Box001
#

v  -24.7630 64.1895 -1.1420
v  3.8133 66.1884 87.3226
v  -54.3542 67.3696 66.2724
v  -68.4106 66.7807 -0.1432
v  75.5822 66.8094 -0.0411
v  54.7345 67.2344 67.5501
v  -0.2683 66.1876 -82.8224
v  -53.7029 68.3077 -65.7212
v  54.1820 66.9744 -66.6307
v  -2.7805 113.1474 0.5950
v  -68.9526 110.5062 0.8026
v  -53.5679 109.4007 67.2281
v  0.4568 109.8852 88.3388
v  74.9674 110.5331 -0.2950
v  55.4686 110.0936 67.1689
v  1.0128 109.8844 -82.2129
v  -52.6253 109.9487 -65.0264
v  55.3412 109.1943 -66.7318
v  0.0531 81.5966 110.6657
v  -66.1775 86.8673 81.8876
v  61.6390 87.1737 81.8501
v  85.1339 87.2100 -0.1766
v  58.6777 86.5728 -73.8699
v  0.4151 86.5738 -96.2772
v  -62.8373 87.5973 -74.2806
v  -91.8881 91.6887 0.3613
# 26 vertices

vn -0.0290 -0.9995 -0.0076
vn 0.0063 -0.9995 0.0309
vn -0.0514 -0.9978 0.0426
vn -0.0717 -0.9973 -0.0124
vn 0.0325 -0.9995 0.0027
vn 0.0325 -0.9992 0.0211
vn -0.0094 -0.9992 -0.0378
vn -0.0630 -0.9967 -0.0509
vn 0.0296 -0.9994 -0.0204
vn -0.0043 1.0000 -0.0028
vn -0.0405 0.9992 -0.0017
vn -0.0388 0.9981 0.0476
vn -0.0007 0.9989 0.0460
vn 0.0338 0.9994 -0.0039
vn -0.0018 1.0000 0.0090
vn 0.0013 0.9988 -0.0490
vn -0.0020 0.9999 -0.0131
vn 0.0357 0.9981 -0.0498
vn -0.0023 -0.6997 0.7145
vn -0.0369 -0.7001 0.7131
vn -0.2717 -0.6049 0.7485
vn -0.2562 -0.5553 0.7912
vn 0.3418 -0.5332 0.7739
vn 0.3682 -0.4880 0.7914
vn 0.9331 -0.3592 -0.0161
vn 0.9997 -0.0124 -0.0188
vn 0.9438 -0.0250 0.3295
vn 0.8620 -0.3947 0.3180
vn 0.8889 -0.2755 -0.3660
vn 0.9201 -0.0365 -0.3901
vn 0.2797 -0.3156 -0.9068
vn -0.0168 -0.4087 -0.9125
vn 0.0075 -0.0103 -0.9999
vn 0.2847 -0.0010 -0.9586
vn -0.2665 -0.3749 -0.8879
vn -0.2823 -0.0060 -0.9593
vn -0.8218 -0.4757 -0.3137
vn -0.7973 -0.6034 -0.0130
vn -0.8181 -0.5747 -0.0176
vn -0.8355 -0.4234 -0.3503
vn -0.8001 -0.5498 0.2400
vn -0.8076 -0.5319 0.2548
vn 0.0001 0.4774 0.8787
vn 0.0017 0.4698 0.8828
vn -0.5620 0.5540 0.6142
vn -0.5495 0.5318 0.6444
vn 0.2797 0.4396 0.8535
vn 0.2771 0.4331 0.8577
vn 0.9438 0.3304 -0.0053
vn 0.8959 0.3232 0.3049
vn 0.9023 0.2218 -0.3697
vn 0.0172 0.3600 -0.9328
vn 0.2315 0.2300 -0.9453
vn -0.2538 0.3547 -0.8999
vn -0.7679 0.6405 -0.0100
vn -0.7146 0.6995 -0.0021
vn -0.7926 0.4917 -0.3605
vn -0.8140 0.4134 -0.4079
# 58 vertex normals

vt 0.5000 0.5000 0.0000
vt 0.5000 0.0000 0.0000
vt 1.0000 0.0000 0.0000
vt 1.0000 0.5000 0.0000
vt 0.0000 0.5000 0.0000
vt 0.0000 0.0000 0.0000
vt 0.5000 1.0000 0.0000
vt 1.0000 1.0000 0.0000
vt 0.0000 1.0000 0.0000
vt 0.5000 0.5334 0.0000
vt 0.0000 0.5334 0.0000
vt 1.0000 0.5334 0.0000
# 12 texture coords

g Box001
usemtl Standard_2
s 1
f 27/55/29 28/56/30 29/57/31 30/58/32 
f 31/59/33 32/60/34 28/56/30 27/55/29 
f 33/61/35 27/55/29 30/58/32 34/62/36 
f 35/63/37 31/59/33 27/55/29 33/61/35 
f 36/55/38 37/59/39 38/60/40 39/56/41 
f 40/58/42 36/55/38 39/56/41 41/57/43 
f 42/61/44 43/63/45 37/59/39 36/55/38 
f 44/62/46 42/61/44 36/55/38 40/58/42 
s 2
f 28/56/47 45/64/48 46/65/49 29/60/50 
f 32/57/51 47/66/52 45/64/48 28/56/47 
s 4
f 31/56/53 48/64/54 47/65/55 32/60/56 
f 35/57/57 49/66/58 48/64/54 31/56/53 
s 2
f 35/60/59 33/56/60 50/64/61 49/65/62 
f 34/57/63 51/66/64 50/64/61 33/56/60 
s 4
f 34/60/65 30/56/66 52/64/67 51/65/68 
f 29/57/69 46/66/70 52/64/67 30/56/66 
s 8
f 45/64/71 39/61/72 38/63/73 46/65/74 
f 47/66/75 41/62/76 39/61/72 45/64/71 
s 4
f 48/64/54 40/61/77 41/63/78 47/65/55 
f 44/62/79 40/61/77 48/64/54 49/66/58 
s 2
f 42/61/80 44/63/81 49/65/62 50/64/61 
f 43/62/82 42/61/80 50/64/61 51/66/64 
s 8
f 52/64/83 37/61/84 43/63/85 51/65/86 
f 38/62/73 37/61/84 52/64/83 46/66/74 
# 24 polygons

#
# object Box002
#

v  6.6276 111.1972 -11.2010
v  -24.6374 111.3434 49.1183
v  -58.5603 112.0581 20.7910
v  -50.2836 111.7018 -21.1354
v  56.0187 111.7192 22.6777
v  21.6779 111.9763 52.0262
v  23.2610 111.3430 -47.3050
v  -21.0014 112.6257 -53.8464
v  60.7957 111.8190 -21.5499
v  4.6689 169.3961 -0.6341
v  -45.3186 148.8319 -17.6709
v  -51.2027 148.1631 20.4648
v  -20.7240 148.4562 45.1446
v  49.6969 148.8483 19.0560
v  20.5967 148.5823 48.6807
v  20.7556 148.4558 -41.5627
v  -18.7005 148.4947 -46.7591
v  52.7911 148.0382 -19.6535
v  -25.6644 127.4678 49.6506
v  -61.0367 127.6449 19.6135
v  20.5293 127.8303 49.0978
v  56.6109 127.8522 25.9836
v  60.2125 127.4667 -25.2731
v  27.5492 127.4673 -51.8616
v  -17.0279 122.7964 -58.1007
v  -58.3642 127.8354 -17.8287
# 26 vertices

vn -0.0001 -1.0000 -0.0009
vn -0.0061 -1.0000 0.0036
vn -0.0200 -0.9998 -0.0009
vn -0.0174 -0.9998 -0.0095
vn 0.0140 -0.9999 0.0078
vn 0.0180 -0.9994 0.0309
vn -0.0012 -0.9999 -0.0150
vn -0.0323 -0.9974 -0.0641
vn 0.0169 -0.9999 -0.0001
vn 0.0261 0.9994 -0.0209
vn -0.6702 0.6532 -0.3523
vn -0.6968 0.7141 0.0663
vn -0.1022 0.9134 0.3939
vn 0.3687 0.8987 0.2374
vn -0.0052 1.0000 0.0074
vn 0.2605 0.6484 -0.7153
vn -0.2660 0.7212 -0.6396
vn 0.5589 0.6692 -0.4897
vn -0.3911 -0.0372 0.9196
vn -0.3828 0.0894 0.9195
vn -0.6784 0.0747 0.7309
vn -0.6767 -0.0314 0.7355
vn 0.3578 0.1183 0.9263
vn 0.3159 0.0733 0.9460
vn 0.8892 -0.0496 0.4549
vn 0.8694 0.0683 0.4894
vn 0.9973 0.0178 0.0717
vn 0.9896 0.1296 0.0619
vn 0.6385 -0.1659 -0.7515
vn 0.3672 -0.2546 -0.8946
vn 0.4184 -0.2444 -0.8748
vn 0.6628 -0.1145 -0.7400
vn 0.1784 -0.3020 -0.9365
vn 0.1941 -0.3384 -0.9208
vn -0.7405 -0.0493 -0.6703
vn -0.8661 -0.2257 -0.4460
vn -0.9248 0.0677 -0.3744
vn -0.4686 0.1858 -0.8636
vn -0.9795 -0.1749 -0.1004
vn -0.9931 0.0985 -0.0638
vn -0.3439 0.1695 0.9236
vn -0.6623 0.2041 0.7209
vn 0.3008 0.0824 0.9501
vn 0.8937 0.2846 0.3468
vn 0.9718 0.2276 0.0612
vn 0.5957 0.3369 -0.7291
vn 0.3748 0.3780 -0.8465
# 47 vertex normals

vt 0.5000 0.5000 0.0000
vt 0.5000 0.0000 0.0000
vt 1.0000 0.0000 0.0000
vt 1.0000 0.5000 0.0000
vt 0.0000 0.5000 0.0000
vt 0.0000 0.0000 0.0000
vt 0.5000 1.0000 0.0000
vt 1.0000 1.0000 0.0000
vt 0.0000 1.0000 0.0000
vt 0.5000 0.5334 0.0000
vt 0.0000 0.5334 0.0000
vt 1.0000 0.5334 0.0000
# 12 texture coords

g Box002
usemtl Standard_2
s 1
f 53/67/87 54/68/88 55/69/89 56/70/90 
f 57/71/91 58/72/92 54/68/88 53/67/87 
f 59/73/93 53/67/87 56/70/90 60/74/94 
f 61/75/95 57/71/91 53/67/87 59/73/93 
s 2
f 62/67/96 63/71/97 64/72/98 65/68/99 
f 66/70/100 62/67/96 65/68/99 67/69/101 
f 68/73/102 69/75/103 63/71/97 62/67/96 
f 70/74/104 68/73/102 62/67/96 66/70/100 
s 4
f 54/68/105 71/76/106 72/77/107 55/72/108 
f 58/69/109 73/78/110 71/76/106 54/68/105 
f 57/68/111 74/76/112 73/77/110 58/72/109 
f 61/69/113 75/78/114 74/76/112 57/68/111 
s 8
f 61/72/115 59/68/116 76/76/117 75/77/118 
f 60/69/119 77/78/120 76/76/117 59/68/116 
s 2
f 60/72/121 56/68/122 78/76/123 77/77/124 
f 55/69/125 72/78/126 78/76/123 56/68/122 
s 4
f 71/76/106 65/73/127 64/75/128 72/77/107 
f 73/78/110 67/74/129 65/73/127 71/76/106 
f 74/76/112 66/73/130 67/75/129 73/77/110 
f 70/74/131 66/73/130 74/76/112 75/78/114 
s 2
f 68/73/102 70/75/104 75/77/132 76/76/133 
f 69/74/103 68/73/102 76/76/133 77/78/124 
f 78/76/123 63/73/97 69/75/103 77/77/124 
f 64/74/98 63/73/97 78/76/123 72/78/126 
# 24 polygons

