# 3ds Max Wavefront OBJ Exporter v0.97b - (c)2007 guruware
# File Created: 30.06.2014 13:35:30

mtllib busch.mtl

#
# object Box001
#

v  -45.6614 0.0000 53.4312
v  -46.1196 0.0000 21.8214
v  -16.4398 0.0000 22.1386
v  -15.9816 0.0000 53.7483
v  13.2400 0.0000 22.2674
v  13.6982 0.0000 53.8772
v  42.9198 0.0000 13.1477
v  43.3781 0.0000 52.5548
v  -46.2153 0.0000 -9.7884
v  -16.5354 0.0000 -9.4712
v  13.1444 0.0000 -9.3423
v  42.8242 0.0000 -18.4620
v  -44.7833 0.0000 -41.3981
v  -15.1035 0.0000 -41.0810
v  14.5763 0.0000 -40.9521
v  44.2561 0.0000 -42.2745
v  -48.7984 76.2995 53.4004
v  -23.2213 79.9296 63.7355
v  -27.8453 92.6226 34.8747
v  -65.0086 80.8109 28.6040
v  16.6650 79.9369 61.0016
v  28.4421 92.5105 35.7343
v  52.7933 76.5004 54.9040
v  61.3260 80.8668 26.3711
v  -29.0528 92.5471 -25.7006
v  -64.1396 80.5688 -16.2002
v  27.2483 92.9685 -24.4623
v  61.6822 80.7187 -18.3179
v  -18.7226 80.2007 -59.1422
v  -53.5780 76.4653 -47.4357
v  22.3863 79.8823 -60.1532
v  50.7195 75.8152 -48.0790
v  -19.0371 11.7222 72.4191
v  -55.3372 15.2186 64.6932
v  22.5503 11.6092 70.8088
v  54.0636 15.5776 65.1600
v  -24.8610 45.8494 81.0608
v  -57.9229 45.8494 58.6368
v  19.1274 45.8494 81.6637
v  54.2267 45.8494 66.9037
v  60.1394 10.8313 29.6757
v  61.2627 11.0680 -14.3924
v  53.9349 15.6536 -51.2625
v  64.8319 45.8494 29.3294
v  67.5719 45.8494 -17.6643
v  54.4287 45.8494 -54.3707
v  19.3355 12.0490 -60.1555
v  -21.5851 11.4538 -59.2029
v  -54.8293 15.2747 -52.9173
v  18.6543 45.8494 -73.5408
v  -25.7948 45.8494 -77.8385
v  -59.1494 45.8494 -54.6552
v  -64.5286 10.8902 -18.2752
v  -65.7692 11.0309 26.8922
v  -67.5729 45.8494 -16.1250
v  -69.3445 45.8494 30.7427
# 56 vertices

vn 0.0000 -1.0000 -0.0000
vn -0.3179 0.8603 0.3985
vn -0.1174 0.8973 0.4256
vn -0.1648 0.9626 0.2152
vn -0.3263 0.9356 0.1350
vn 0.1233 0.8888 0.4414
vn 0.2272 0.9306 0.2870
vn 0.1241 0.9746 0.1863
vn 0.3123 0.9400 0.1377
vn -0.2040 0.9543 -0.2182
vn -0.3173 0.9400 -0.1251
vn 0.1715 0.9696 -0.1744
vn 0.3505 0.9298 -0.1124
vn -0.1088 0.9330 -0.3431
vn -0.1654 0.9691 -0.1832
vn 0.1146 0.9273 -0.3563
vn 0.3236 0.8890 -0.3241
vn -0.1482 -0.7351 0.6616
vn 0.0041 -0.8431 0.5377
vn -0.0705 -0.5737 0.8160
vn -0.3599 -0.3167 0.8776
vn 0.0496 -0.8119 0.5817
vn 0.1598 -0.5875 0.7933
vn 0.0341 -0.6427 0.7654
vn 0.1646 -0.3578 0.9192
vn -0.2383 0.1445 0.9604
vn -0.5165 0.2390 0.8223
vn 0.1671 0.1141 0.9793
vn 0.3382 0.1077 0.9349
vn -0.2048 0.4174 0.8854
vn -0.3934 0.2691 0.8791
vn 0.1039 0.5048 0.8570
vn 0.2753 0.4426 0.8534
vn 0.6665 -0.7319 0.1418
vn 0.5269 -0.8500 0.0024
vn 0.8474 -0.5240 0.0856
vn 0.9249 -0.2983 0.2359
vn 0.5913 -0.8027 -0.0783
vn 0.8297 -0.5470 -0.1110
vn 0.8624 -0.5035 0.0519
vn 0.9379 -0.3061 -0.1632
vn 0.9889 0.0085 0.1485
vn 0.9592 0.0500 0.2784
vn 0.9884 -0.0059 -0.1520
vn 0.9531 0.0311 -0.3009
vn 0.9838 0.1182 0.1348
vn 0.9380 0.1635 0.3055
vn 0.9757 0.1473 -0.1624
vn 0.9230 0.1675 -0.3464
vn 0.1634 -0.6975 -0.6977
vn -0.0098 -0.8455 -0.5339
vn 0.1056 -0.6139 -0.7823
vn 0.3384 -0.3789 -0.8613
vn -0.0491 -0.8247 -0.5635
vn -0.1596 -0.6642 -0.7303
vn 0.0086 -0.5985 -0.8011
vn -0.1620 -0.3563 -0.9202
vn 0.2322 0.0275 -0.9723
vn 0.4596 0.0807 -0.8844
vn -0.2430 -0.0051 -0.9700
vn -0.4891 -0.0025 -0.8723
vn 0.2283 0.3214 -0.9190
vn 0.4094 0.2357 -0.8814
vn -0.1293 0.4677 -0.8744
vn -0.4427 0.3968 -0.8041
vn -0.6386 -0.7445 -0.1947
vn -0.5026 -0.8644 -0.0135
vn -0.8540 -0.5043 -0.1278
vn -0.9007 -0.3416 -0.2684
vn -0.5258 -0.8475 0.0723
vn -0.8289 -0.5410 0.1422
vn -0.8397 -0.5429 0.0122
vn -0.9108 -0.3512 0.2172
vn -0.9915 0.0041 -0.1297
vn -0.9697 0.0010 -0.2441
vn -0.9774 0.0338 0.2085
vn -0.9324 0.1097 0.3445
vn -0.9815 0.1293 -0.1413
vn -0.9081 0.2453 -0.3393
vn -0.9573 0.1291 0.2586
vn -0.8521 0.2225 0.4737
# 81 vertex normals

vt 1.0000 0.0000 0.0000
vt 1.0000 0.3333 0.0000
vt 0.6667 0.3333 0.0000
vt 0.6667 0.0000 0.0000
vt 0.3333 0.3333 0.0000
vt 0.3333 0.0000 0.0000
vt -0.0000 0.3333 0.0000
vt -0.0000 0.0000 0.0000
vt 1.0000 0.6667 0.0000
vt 0.6667 0.6667 0.0000
vt 0.3333 0.6667 0.0000
vt -0.0000 0.6667 0.0000
vt 1.0000 1.0000 0.0000
vt 0.6667 1.0000 0.0000
vt 0.3333 1.0000 0.0000
vt -0.0000 1.0000 0.0000
vt 0.0000 0.0000 0.0000
vt 0.0000 0.3333 0.0000
vt 0.0000 0.6667 0.0000
vt 0.0000 1.0000 0.0000
# 20 texture coords

g Box001
usemtl Standard_2
s 2
f 1/1/1 2/2/1 3/3/1 4/4/1 
f 4/4/1 3/3/1 5/5/1 6/6/1 
f 6/6/1 5/5/1 7/7/1 8/8/1 
f 2/2/1 9/9/1 10/10/1 3/3/1 
f 3/3/1 10/10/1 11/11/1 5/5/1 
f 5/5/1 11/11/1 12/12/1 7/7/1 
f 9/9/1 13/13/1 14/14/1 10/10/1 
f 10/10/1 14/14/1 15/15/1 11/11/1 
f 11/11/1 15/15/1 16/16/1 12/12/1 
s 4
f 17/17/2 18/6/3 19/5/4 20/18/5 
f 18/6/3 21/4/6 22/3/7 19/5/4 
f 21/4/6 23/1/8 24/2/9 22/3/7 
f 20/18/5 19/5/4 25/11/10 26/19/11 
f 19/5/4 22/3/7 27/10/12 25/11/10 
f 22/3/7 24/2/9 28/9/13 27/10/12 
f 26/19/11 25/11/10 29/15/14 30/20/15 
f 25/11/10 27/10/12 31/14/16 29/15/14 
f 27/10/12 28/9/13 32/13/17 31/14/16 
s 8
f 1/17/18 4/6/19 33/5/20 34/18/21 
f 4/6/19 6/4/22 35/3/23 33/5/20 
f 6/4/22 8/1/24 36/2/25 35/3/23 
f 34/18/21 33/5/20 37/11/26 38/19/27 
f 33/5/20 35/3/23 39/10/28 37/11/26 
f 35/3/23 36/2/25 40/9/29 39/10/28 
f 38/19/27 37/11/26 18/15/30 17/20/31 
f 37/11/26 39/10/28 21/14/32 18/15/30 
f 39/10/28 40/9/29 23/13/33 21/14/32 
s 16
f 8/17/34 7/6/35 41/5/36 36/18/37 
f 7/6/35 12/4/38 42/3/39 41/5/36 
f 12/4/38 16/1/40 43/2/41 42/3/39 
f 36/18/37 41/5/36 44/11/42 40/19/43 
f 41/5/36 42/3/39 45/10/44 44/11/42 
f 42/3/39 43/2/41 46/9/45 45/10/44 
f 40/19/43 44/11/42 24/15/46 23/20/47 
f 44/11/42 45/10/44 28/14/48 24/15/46 
f 45/10/44 46/9/45 32/13/49 28/14/48 
s 32
f 16/17/50 15/6/51 47/5/52 43/18/53 
f 15/6/51 14/4/54 48/3/55 47/5/52 
f 14/4/54 13/1/56 49/2/57 48/3/55 
f 43/18/53 47/5/52 50/11/58 46/19/59 
f 47/5/52 48/3/55 51/10/60 50/11/58 
f 48/3/55 49/2/57 52/9/61 51/10/60 
f 46/19/59 50/11/58 31/15/62 32/20/63 
f 50/11/58 51/10/60 29/14/64 31/15/62 
f 51/10/60 52/9/61 30/13/65 29/14/64 
s 64
f 13/17/66 9/6/67 53/5/68 49/18/69 
f 9/6/67 2/4/70 54/3/71 53/5/68 
f 2/4/70 1/1/72 34/2/73 54/3/71 
f 49/18/69 53/5/68 55/11/74 52/19/75 
f 53/5/68 54/3/71 56/10/76 55/11/74 
f 54/3/71 34/2/73 38/9/77 56/10/76 
f 52/19/75 55/11/74 26/15/78 30/20/79 
f 55/11/74 56/10/76 20/14/80 26/15/78 
f 56/10/76 38/9/77 17/13/81 20/14/80 
# 54 polygons

